<?xml version="1.0" standalone="no"?>
<!DOCTYPE svg PUBLIC "-//W3C//DTD SVG 20010904//EN"
 "http://www.w3.org/TR/2001/REC-SVG-20010904/DTD/svg10.dtd">
<svg version="1.0" xmlns="http://www.w3.org/2000/svg"
 width="1280.000000pt" height="1138.000000pt" viewBox="0 0 1280.000000 1138.000000"
 preserveAspectRatio="xMidYMid meet">
<g transform="translate(0.000000,1138.000000) scale(0.100000,-0.100000)"
fill="#FFFFFF" stroke="none">
<path d="M255 11338 c-11 -11 -40 -34 -65 -52 -36 -26 -56 -53 -102 -141 -57
-110 -88 -188 -88 -222 0 -29 40 -125 66 -160 17 -23 73 -57 192 -117 l167
-84 595 -641 c327 -352 598 -650 602 -663 4 -13 199 -1105 433 -2428 234
-1323 439 -2479 456 -2569 16 -90 29 -177 29 -192 0 -27 -3 -29 -41 -29 -23 0
-89 -14 -147 -30 -334 -97 -568 -225 -745 -409 -101 -105 -136 -155 -192 -274
-140 -297 -135 -645 16 -1071 46 -129 161 -370 244 -512 30 -51 55 -99 55
-107 0 -7 -29 -37 -65 -66 -128 -102 -250 -292 -290 -451 -76 -298 3 -611 208
-827 145 -152 278 -224 506 -273 103 -22 174 -25 230 -11 20 6 70 17 111 26
512 114 811 680 620 1173 -16 41 -27 79 -24 84 8 12 5081 10 5089 -2 3 -5 -1
-23 -9 -39 -34 -66 -67 -207 -73 -311 -13 -259 77 -493 262 -675 156 -154 355
-242 593 -262 93 -8 302 42 417 99 187 94 348 269 424 460 50 126 64 213 59
367 -4 124 -8 146 -41 244 -21 60 -35 113 -31 118 3 5 134 9 300 9 l294 0 0
125 0 125 -403 0 -402 0 -60 45 c-82 61 -153 98 -266 137 -91 32 -99 33 -259
33 -142 0 -176 -3 -242 -22 -105 -31 -193 -74 -283 -139 l-76 -54 -2750 0
-2749 0 -62 46 c-82 60 -198 118 -290 145 -99 28 -314 37 -413 16 -38 -8 -75
-13 -81 -10 -15 5 -120 185 -187 318 -274 549 -295 983 -63 1292 126 168 357
309 650 397 l117 36 1320 0 1320 0 -3 122 -3 123 -1160 5 -1159 5 -7 33 c-5
26 -3 35 12 42 11 6 206 10 496 10 263 0 1034 5 1713 10 1714 14 3561 27 5520
41 1408 9 1667 13 1676 25 6 8 15 47 18 87 4 39 16 146 26 237 11 91 132 1153
270 2360 137 1207 254 2212 259 2233 8 33 7 38 -13 42 -11 3 -156 19 -321 35
-287 29 -625 64 -1260 130 -159 17 -636 66 -1060 110 -758 78 -1598 164 -3105
320 -421 43 -1118 115 -1550 160 -432 45 -999 103 -1260 130 -261 27 -851 88
-1310 135 -459 47 -845 90 -857 95 -11 5 -36 34 -55 65 l-33 56 -478 271 -478
271 -21 49 c-11 26 -37 62 -57 80 -20 18 -142 83 -271 146 -200 98 -245 116
-301 122 -37 4 -71 9 -75 12 -5 2 -18 -4 -29 -14z m1104 -882 c209 -119 382
-220 385 -225 4 -7 71 -631 79 -740 1 -19 -3 -36 -9 -38 -11 -4 -971 1018
-981 1045 -3 6 11 30 31 52 20 23 47 61 59 86 15 32 26 44 38 41 10 -3 188
-102 398 -221z m1148 -346 c158 -16 340 -35 403 -41 63 -7 120 -17 127 -23 6
-6 16 -80 22 -181 17 -260 50 -737 66 -955 7 -107 11 -198 9 -202 -6 -10 -85
-10 -101 0 -14 9 -893 1408 -893 1422 0 15 55 12 367 -20z m1245 -129 c252
-26 460 -50 464 -54 7 -7 73 -1128 74 -1249 0 -48 -4 -68 -12 -68 -36 0 -976
71 -995 75 -13 3 -25 15 -27 28 -11 51 -89 1294 -83 1310 6 16 15 17 64 12 32
-4 264 -28 515 -54z m-1824 2 c51 -73 765 -1219 770 -1235 4 -15 -2 -18 -39
-17 -111 1 -629 45 -638 54 -5 6 -35 260 -65 565 -31 305 -59 579 -62 608 -7
59 4 67 34 25z m3002 -123 c278 -29 509 -56 513 -60 10 -9 71 -1246 62 -1268
-4 -12 -18 -14 -78 -8 -39 3 -198 15 -352 26 -581 43 -648 49 -655 57 -10 10
-82 1292 -74 1305 4 6 23 8 43 5 20 -3 263 -29 541 -57z m920 -95 c135 -14
373 -39 529 -55 192 -20 287 -34 293 -42 4 -7 8 -286 8 -619 0 -667 5 -623
-62 -613 -18 2 -190 15 -383 29 -564 40 -586 42 -597 53 -10 10 -73 1236 -64
1259 7 17 -11 17 276 -12z m1315 -136 c165 -17 390 -41 500 -52 l200 -22 -4
-595 c-1 -327 -7 -599 -12 -604 -5 -6 -100 -3 -246 7 -484 35 -778 58 -789 62
-8 2 -13 175 -16 607 -3 332 -3 609 0 616 6 17 30 16 367 -19z m1355 -139
c272 -28 511 -53 530 -58 34 -7 34 -8 32 -52 -1 -25 -9 -247 -17 -495 -18
-543 -23 -615 -40 -621 -12 -5 -981 63 -1021 71 -12 3 -24 10 -26 17 -7 20 9
1166 17 1178 3 5 12 10 18 10 7 0 235 -22 507 -50z m1250 -130 c314 -33 489
-54 496 -63 9 -9 10 -43 4 -132 -4 -66 -18 -311 -31 -544 -13 -235 -28 -429
-34 -437 -8 -11 -96 -7 -518 25 -299 22 -512 42 -519 49 -16 16 26 1142 44
1153 6 4 25 5 42 3 17 -3 249 -27 516 -54z m1228 -127 c254 -26 468 -50 474
-54 15 -9 15 -8 -27 -489 -52 -585 -53 -593 -64 -599 -13 -9 -1033 67 -1043
77 -5 5 1 165 12 358 11 192 25 437 30 544 6 107 13 201 16 209 5 16 -30 19
602 -46z m902 -93 c543 -55 742 -78 750 -86 11 -11 -104 -1032 -118 -1046 -8
-8 -943 54 -999 67 -27 6 -27 3 -8 205 7 85 28 315 45 510 18 195 37 361 43
368 7 9 23 11 46 8 20 -3 128 -15 241 -26z m-9475 -510 c160 -11 309 -23 332
-26 l41 -5 196 -312 195 -312 24 -345 c18 -255 22 -348 13 -356 -13 -14 -981
37 -996 52 -16 16 -148 788 -169 989 -32 307 -34 323 -26 335 5 7 24 10 54 6
25 -3 177 -15 336 -26z m1408 -104 c267 -20 453 -38 460 -45 14 -14 84 -1258
71 -1271 -12 -12 -391 10 -408 24 -7 6 -161 247 -342 536 l-329 525 -7 75 c-3
41 -7 101 -7 133 l-1 57 58 0 c31 0 259 -16 505 -34z m1151 -85 c285 -22 522
-43 526 -48 10 -9 71 -1233 62 -1247 -5 -9 -15 -9 -657 25 -265 14 -404 25
-412 33 -9 8 -23 192 -48 635 -19 343 -32 627 -29 632 7 12 -32 14 558 -30z
m1166 -86 c267 -20 495 -38 508 -41 l22 -4 0 -484 c0 -265 3 -536 6 -602 3
-72 1 -125 -5 -133 -8 -13 -66 -12 -433 7 -552 29 -547 29 -553 56 -8 42 -58
1204 -52 1220 4 9 10 16 14 16 4 0 226 -16 493 -35z m1210 -91 c261 -19 479
-39 484 -44 18 -18 0 -1197 -18 -1203 -10 -3 -166 5 -833 42 -95 5 -177 12
-183 16 -7 4 -10 204 -10 616 l0 609 42 0 c23 0 256 -16 518 -36z m1005 -74
c564 -40 658 -49 667 -62 4 -7 6 -51 3 -98 -5 -77 -13 -294 -31 -858 -5 -128
-11 -206 -18 -211 -7 -6 -205 1 -516 19 -278 15 -507 28 -509 29 -2 1 -1 267
3 593 5 405 11 597 18 606 7 8 25 11 52 7 23 -3 172 -14 331 -25z m1151 -85
c187 -14 407 -30 489 -35 212 -16 195 -9 195 -83 0 -71 -47 -929 -56 -1025 -3
-39 -11 -65 -19 -68 -7 -3 -136 1 -287 10 -150 8 -371 21 -491 27 -129 7 -221
17 -226 23 -9 11 24 1105 35 1154 2 12 8 22 13 22 5 0 161 -11 347 -25z m1082
-80 c103 -8 318 -24 477 -36 160 -11 293 -24 297 -28 11 -10 -88 -1111 -101
-1124 -12 -12 -991 39 -1005 53 -5 5 -4 90 3 202 6 106 20 357 32 558 11 201
22 371 24 378 6 16 44 15 273 -3z m1282 -95 c157 -11 350 -25 430 -31 208 -14
210 -14 210 -47 0 -15 -27 -262 -60 -550 -33 -287 -60 -525 -60 -529 0 -8
-228 3 -815 37 -93 6 -174 15 -179 20 -5 5 -1 99 12 242 12 128 33 374 49 547
19 221 31 318 41 327 9 9 26 12 50 9 20 -3 165 -14 322 -25z m-8387 -438 c81
-129 137 -228 134 -236 -5 -12 -25 -14 -114 -10 -139 7 -152 10 -158 37 -7 34
-32 421 -27 430 10 20 34 -12 165 -221z m-688 -323 c270 -14 424 -25 432 -33
7 -7 19 -127 32 -326 22 -317 28 -415 56 -810 9 -127 11 -218 6 -223 -11 -11
-820 8 -832 20 -4 4 -24 99 -43 209 -20 111 -74 419 -121 684 -47 266 -83 490
-80 498 4 12 18 14 68 9 34 -3 251 -16 482 -28z m808 -45 c106 -6 108 -6 131
-37 13 -18 174 -270 357 -562 257 -410 334 -540 340 -575 11 -66 11 -198 -1
-205 -11 -7 -919 13 -957 21 -29 5 -28 2 -53 389 -12 176 -25 376 -30 445 -23
318 -33 509 -27 524 6 15 17 17 69 12 35 -3 111 -8 171 -12z m739 -40 c25 -5
26 -9 32 -82 17 -220 26 -446 17 -455 -10 -10 -48 45 -245 360 -59 95 -104
178 -101 184 7 10 231 5 297 -7z m348 -19 c63 -3 284 -14 490 -25 423 -24 400
-18 400 -104 0 -28 11 -280 25 -561 14 -280 25 -545 25 -588 l0 -78 -287 6
c-381 8 -448 12 -466 33 -8 9 -89 136 -180 282 l-165 265 -22 384 c-24 420
-25 405 35 396 17 -2 82 -7 145 -10z m1506 -80 c281 -16 463 -30 471 -36 10
-9 13 -129 13 -635 0 -584 -1 -623 -17 -628 -33 -9 -892 19 -902 29 -9 10 -73
1273 -65 1287 7 11 -22 12 500 -17z m1009 -55 c88 -5 260 -15 383 -21 146 -8
226 -16 232 -24 16 -19 -5 -1215 -21 -1225 -7 -5 -71 -6 -143 -4 -72 3 -293 9
-490 14 -198 6 -361 12 -363 14 -8 7 -16 1212 -9 1240 l7 28 122 -6 c67 -4
194 -11 282 -16z m1308 -72 c255 -13 445 -27 453 -33 13 -9 12 -86 -6 -595
-12 -322 -25 -589 -30 -594 -10 -10 -114 -10 -624 4 -197 6 -363 13 -368 16
-12 8 1 1193 14 1218 9 16 18 18 66 13 32 -3 254 -16 495 -29z m887 -48 c102
-5 282 -14 400 -20 118 -6 239 -13 268 -16 l52 -5 0 -47 c0 -26 -5 -121 -10
-212 -5 -91 -19 -329 -30 -530 -12 -201 -25 -369 -30 -374 -13 -13 -971 11
-984 24 -10 10 -10 34 5 455 25 709 25 727 38 734 7 5 33 6 59 5 26 -2 130 -8
232 -14z m1399 -75 c327 -18 447 -28 452 -37 5 -7 6 -29 4 -48 -3 -19 -14
-138 -25 -265 -52 -604 -71 -800 -80 -809 -11 -11 -952 13 -964 25 -12 11 46
1129 60 1150 8 13 59 11 553 -16z m1116 -60 c415 -22 446 -25 452 -41 7 -19
-115 -1076 -125 -1086 -10 -10 -936 12 -954 23 -12 8 -14 -14 47 679 19 223
38 416 41 429 l5 24 127 -7 c70 -3 253 -13 407 -21z m-8931 -1015 c187 -5 343
-13 348 -18 4 -4 29 -317 55 -695 41 -600 45 -689 33 -697 -24 -15 -645 -13
-657 3 -6 6 -22 82 -37 167 -14 85 -69 396 -121 690 -52 294 -93 541 -90 548
5 15 23 15 469 2z m1125 -30 c195 -5 327 -12 334 -19 14 -14 87 -1332 74
-1348 -7 -10 -116 -13 -483 -13 -260 0 -475 4 -478 8 -8 14 -99 1359 -93 1375
5 13 31 14 164 11 87 -3 304 -9 482 -14z m547 -18 c10 -6 744 -1169 819 -1296
14 -24 22 -47 17 -50 -15 -9 -833 -9 -842 0 -9 11 -83 1331 -75 1345 7 11 65
12 81 1z m871 -18 l111 -6 6 -46 c12 -102 50 -1052 42 -1059 -11 -11 1 -28
-372 566 -185 293 -333 539 -330 547 4 11 44 13 218 8 117 -2 263 -7 325 -10z
m803 -20 c173 -3 323 -8 333 -10 16 -5 17 -42 15 -647 l-3 -642 -414 -8 c-333
-6 -417 -5 -427 5 -10 10 -21 181 -44 656 -17 353 -28 648 -24 653 4 8 46 9
128 5 66 -3 263 -8 436 -12z m1192 -30 c147 -4 272 -10 278 -14 9 -5 10 -166
4 -618 -4 -336 -10 -615 -14 -621 -4 -7 -167 -12 -496 -13 l-489 -3 -3 630
c-1 347 0 636 3 644 5 12 42 13 228 8 122 -4 342 -10 489 -13z m978 -25 c228
-6 419 -15 424 -20 9 -8 2 -265 -25 -939 -8 -218 -12 -257 -27 -268 -12 -9
-120 -12 -487 -10 l-470 3 3 400 c1 220 5 500 8 623 l6 222 77 0 c42 0 263 -5
491 -11z m1164 -30 c204 -6 375 -14 379 -18 4 -5 -3 -210 -17 -457 -15 -247
-29 -505 -32 -574 -4 -69 -11 -131 -17 -137 -7 -10 -117 -13 -488 -13 l-479 0
0 68 c0 136 40 1123 45 1133 8 12 154 11 609 -2z m921 -24 c408 -7 553 -14
558 -29 2 -6 -4 -99 -14 -206 -10 -107 -32 -355 -49 -550 -19 -217 -36 -360
-43 -367 -14 -14 -914 -21 -927 -6 -5 4 5 235 20 513 36 636 36 641 52 652 7
4 31 6 53 3 22 -2 180 -7 350 -10z m1338 -34 c163 -4 300 -11 304 -14 7 -8 2
-52 -93 -877 -13 -118 -28 -217 -32 -221 -4 -4 -213 -11 -464 -15 -441 -6
-458 -6 -465 12 -4 10 3 131 15 269 12 137 34 383 48 545 15 162 31 300 36
307 7 9 55 11 181 7 95 -3 306 -9 470 -13z"/>
</g>
</svg>
